<svg xmlns="http://www.w3.org/2000/svg" xmlns:xlink="http://www.w3.org/1999/xlink" version="1.1" x="0px" y="0px" viewBox="23.788 46.575 56.425 125" enable-background="new 23.788 46.575 56.425 100" xml:space="preserve"><path d="M56.235,139.538h16.028c4.691,0,4.691,7.036,0,7.036H31.867c-4.691,0-4.691-7.036,0-7.036h16.159V127.68  c-13.292-1.824-24.238-12.771-24.238-27.104V86.24c0-3.778,7.037-3.778,7.037,0v14.335c0,5.343,2.085,10.555,5.995,14.073  c3.779,3.909,8.991,5.994,14.334,5.994h2.215c5.474,0,10.164-2.085,13.943-5.994c3.648-3.519,5.864-8.73,5.864-14.073V86.24  c0-3.648,7.037-3.648,7.037,0v14.335c0,13.291-9.904,24.889-23.978,27.104V139.538z"/><path d="M68.224,74.643V65.13c-1.434,0-2.476-1.173-2.476-2.476c0-1.434,1.042-2.476,2.346-2.606  c-0.521-5.082-3.649-9.513-8.079-11.728c0,1.303-1.173,2.215-2.477,2.215c-1.303,0-2.476-1.042-2.476-2.476  c0-0.391,0.13-0.912,0.391-1.303c-2.215-0.261-4.17-0.261-6.385,0.13c0.261,0.261,0.391,0.782,0.391,1.173  c0,1.434-1.173,2.476-2.476,2.476s-2.476-0.912-2.476-2.215c-4.43,2.215-7.558,6.646-8.079,11.728  c1.303,0.131,2.346,1.173,2.346,2.606c0,1.303-1.042,2.476-2.476,2.476v9.513c1.434,0,2.476,1.173,2.476,2.477  c0,1.303-1.042,2.476-2.476,2.476v20.589c0,8.21,6.776,14.855,14.855,14.855c0.391,0,1.824,0,2.215,0  c8.21,0,14.855-6.646,14.855-14.855V79.595c-1.434,0-2.476-1.173-2.476-2.476C65.748,75.686,66.79,74.643,68.224,74.643z   M42.944,52.881c1.303,0,2.476,1.043,2.476,2.477c0,1.303-1.172,2.476-2.476,2.476c-1.434,0-2.476-1.173-2.476-2.476  C40.468,53.924,41.51,52.881,42.944,52.881z M41.641,72.298c-1.434,0-2.476-1.043-2.476-2.477c0-1.303,1.042-2.476,2.476-2.476  c1.303,0,2.476,1.173,2.476,2.476C44.117,71.255,42.944,72.298,41.641,72.298z M46.983,79.595c-1.434,0-2.476-1.042-2.476-2.476  s1.042-2.477,2.476-2.477c1.303,0,2.476,1.043,2.476,2.477S48.287,79.595,46.983,79.595z M46.983,65.13  c-1.434,0-2.476-1.173-2.476-2.476c0-1.434,1.042-2.606,2.476-2.606c1.303,0,2.476,1.173,2.476,2.606  C49.459,63.957,48.287,65.13,46.983,65.13z M61.578,52.881c1.434,0,2.476,1.043,2.476,2.477c0,1.303-1.042,2.476-2.476,2.476  s-2.476-1.173-2.476-2.476C59.103,53.924,60.145,52.881,61.578,52.881z M52.195,72.298c-1.303,0-2.476-1.043-2.476-2.477  c0-1.303,1.173-2.476,2.476-2.476c1.434,0,2.606,1.173,2.606,2.476C54.802,71.255,53.629,72.298,52.195,72.298z M52.195,57.833  c-1.303,0-2.476-1.173-2.476-2.476c0-1.434,1.173-2.477,2.476-2.477c1.434,0,2.606,1.043,2.606,2.477  C54.802,56.66,53.629,57.833,52.195,57.833z M57.538,79.595c-1.303,0-2.476-1.042-2.476-2.476s1.173-2.477,2.476-2.477  c1.434,0,2.477,1.043,2.477,2.477S58.972,79.595,57.538,79.595z M57.538,65.13c-1.303,0-2.476-1.173-2.476-2.476  c0-1.434,1.173-2.606,2.476-2.606c1.434,0,2.477,1.173,2.477,2.606C60.015,63.957,58.972,65.13,57.538,65.13z M62.881,72.298  c-1.434,0-2.476-1.043-2.476-2.477c0-1.303,1.042-2.476,2.476-2.476s2.477,1.173,2.477,2.476  C65.357,71.255,64.314,72.298,62.881,72.298z"/></svg>
